<mxfile host="app.diagrams.net" agent="Mozilla/5.0 (Windows NT 10.0; Win64; x64) AppleWebKit/537.36 (KHTML, like Gecko) Chrome/139.0.0.0 Safari/537.36" version="27.1.4">
  <diagram name="Página-1" id="rbzo9oO_T_ObXMNqc98u">
    <mxGraphModel dx="2974" dy="2066" grid="0" gridSize="10" guides="1" tooltips="1" connect="1" arrows="1" fold="1" page="0" pageScale="1" pageWidth="827" pageHeight="1169" math="0" shadow="0">
      <root>
        <mxCell id="0" />
        <mxCell id="1" parent="0" />
        <mxCell id="uAErMOGdW6Ac975Xc95T-94" style="edgeStyle=none;curved=1;rounded=0;orthogonalLoop=1;jettySize=auto;html=1;fontSize=12;startSize=8;endSize=8;" edge="1" parent="1" source="uAErMOGdW6Ac975Xc95T-1" target="uAErMOGdW6Ac975Xc95T-2">
          <mxGeometry relative="1" as="geometry" />
        </mxCell>
        <mxCell id="uAErMOGdW6Ac975Xc95T-95" style="edgeStyle=none;curved=1;rounded=0;orthogonalLoop=1;jettySize=auto;html=1;fontSize=12;startSize=8;endSize=8;" edge="1" parent="1" source="uAErMOGdW6Ac975Xc95T-1" target="uAErMOGdW6Ac975Xc95T-7">
          <mxGeometry relative="1" as="geometry" />
        </mxCell>
        <mxCell id="uAErMOGdW6Ac975Xc95T-97" style="edgeStyle=none;curved=1;rounded=0;orthogonalLoop=1;jettySize=auto;html=1;fontSize=12;startSize=8;endSize=8;" edge="1" parent="1" source="uAErMOGdW6Ac975Xc95T-1" target="uAErMOGdW6Ac975Xc95T-3">
          <mxGeometry relative="1" as="geometry" />
        </mxCell>
        <mxCell id="uAErMOGdW6Ac975Xc95T-1" value="ECS&lt;div&gt;&lt;br&gt;&lt;/div&gt;" style="sketch=0;points=[[0,0,0],[0.25,0,0],[0.5,0,0],[0.75,0,0],[1,0,0],[0,1,0],[0.25,1,0],[0.5,1,0],[0.75,1,0],[1,1,0],[0,0.25,0],[0,0.5,0],[0,0.75,0],[1,0.25,0],[1,0.5,0],[1,0.75,0]];outlineConnect=0;fontColor=#232F3E;fillColor=#ED7100;strokeColor=#ffffff;dashed=0;verticalLabelPosition=bottom;verticalAlign=top;align=center;html=1;fontSize=12;fontStyle=0;aspect=fixed;shape=mxgraph.aws4.resourceIcon;resIcon=mxgraph.aws4.ecs;" vertex="1" parent="1">
          <mxGeometry x="-470" y="88" width="78" height="78" as="geometry" />
        </mxCell>
        <mxCell id="uAErMOGdW6Ac975Xc95T-2" value="Lambda" style="sketch=0;points=[[0,0,0],[0.25,0,0],[0.5,0,0],[0.75,0,0],[1,0,0],[0,1,0],[0.25,1,0],[0.5,1,0],[0.75,1,0],[1,1,0],[0,0.25,0],[0,0.5,0],[0,0.75,0],[1,0.25,0],[1,0.5,0],[1,0.75,0]];outlineConnect=0;fontColor=#232F3E;fillColor=#ED7100;strokeColor=#ffffff;dashed=0;verticalLabelPosition=bottom;verticalAlign=top;align=center;html=1;fontSize=12;fontStyle=0;aspect=fixed;shape=mxgraph.aws4.resourceIcon;resIcon=mxgraph.aws4.lambda;" vertex="1" parent="1">
          <mxGeometry x="-302.05" y="-228" width="78" height="78" as="geometry" />
        </mxCell>
        <mxCell id="uAErMOGdW6Ac975Xc95T-3" value="S3" style="sketch=0;points=[[0,0,0],[0.25,0,0],[0.5,0,0],[0.75,0,0],[1,0,0],[0,1,0],[0.25,1,0],[0.5,1,0],[0.75,1,0],[1,1,0],[0,0.25,0],[0,0.5,0],[0,0.75,0],[1,0.25,0],[1,0.5,0],[1,0.75,0]];outlineConnect=0;fontColor=#232F3E;fillColor=#7AA116;strokeColor=#ffffff;dashed=0;verticalLabelPosition=bottom;verticalAlign=top;align=center;html=1;fontSize=12;fontStyle=0;aspect=fixed;shape=mxgraph.aws4.resourceIcon;resIcon=mxgraph.aws4.s3;" vertex="1" parent="1">
          <mxGeometry x="-516" y="372" width="78" height="78" as="geometry" />
        </mxCell>
        <mxCell id="uAErMOGdW6Ac975Xc95T-28" style="edgeStyle=none;curved=1;rounded=0;orthogonalLoop=1;jettySize=auto;html=1;exitX=1;exitY=1;exitDx=0;exitDy=0;exitPerimeter=0;fontSize=12;startSize=8;endSize=8;" edge="1" parent="1" source="uAErMOGdW6Ac975Xc95T-4" target="uAErMOGdW6Ac975Xc95T-27">
          <mxGeometry relative="1" as="geometry" />
        </mxCell>
        <mxCell id="uAErMOGdW6Ac975Xc95T-4" value="SQS" style="sketch=0;points=[[0,0,0],[0.25,0,0],[0.5,0,0],[0.75,0,0],[1,0,0],[0,1,0],[0.25,1,0],[0.5,1,0],[0.75,1,0],[1,1,0],[0,0.25,0],[0,0.5,0],[0,0.75,0],[1,0.25,0],[1,0.5,0],[1,0.75,0]];outlineConnect=0;fontColor=#232F3E;fillColor=#E7157B;strokeColor=#ffffff;dashed=0;verticalLabelPosition=bottom;verticalAlign=top;align=center;html=1;fontSize=12;fontStyle=0;aspect=fixed;shape=mxgraph.aws4.resourceIcon;resIcon=mxgraph.aws4.sqs;" vertex="1" parent="1">
          <mxGeometry x="-289" y="192" width="78" height="78" as="geometry" />
        </mxCell>
        <mxCell id="uAErMOGdW6Ac975Xc95T-5" value="SNS" style="sketch=0;points=[[0,0,0],[0.25,0,0],[0.5,0,0],[0.75,0,0],[1,0,0],[0,1,0],[0.25,1,0],[0.5,1,0],[0.75,1,0],[1,1,0],[0,0.25,0],[0,0.5,0],[0,0.75,0],[1,0.25,0],[1,0.5,0],[1,0.75,0]];outlineConnect=0;fontColor=#232F3E;fillColor=#E7157B;strokeColor=#ffffff;dashed=0;verticalLabelPosition=bottom;verticalAlign=top;align=center;html=1;fontSize=12;fontStyle=0;aspect=fixed;shape=mxgraph.aws4.resourceIcon;resIcon=mxgraph.aws4.sns;" vertex="1" parent="1">
          <mxGeometry x="-556" y="-74" width="78" height="78" as="geometry" />
        </mxCell>
        <mxCell id="uAErMOGdW6Ac975Xc95T-45" style="edgeStyle=none;curved=1;rounded=0;orthogonalLoop=1;jettySize=auto;html=1;fontSize=12;startSize=8;endSize=8;" edge="1" parent="1" source="uAErMOGdW6Ac975Xc95T-6" target="uAErMOGdW6Ac975Xc95T-44">
          <mxGeometry relative="1" as="geometry" />
        </mxCell>
        <mxCell id="uAErMOGdW6Ac975Xc95T-6" value="Glue" style="sketch=0;points=[[0,0,0],[0.25,0,0],[0.5,0,0],[0.75,0,0],[1,0,0],[0,1,0],[0.25,1,0],[0.5,1,0],[0.75,1,0],[1,1,0],[0,0.25,0],[0,0.5,0],[0,0.75,0],[1,0.25,0],[1,0.5,0],[1,0.75,0]];outlineConnect=0;fontColor=#232F3E;fillColor=#8C4FFF;strokeColor=#ffffff;dashed=0;verticalLabelPosition=bottom;verticalAlign=top;align=center;html=1;fontSize=12;fontStyle=0;aspect=fixed;shape=mxgraph.aws4.resourceIcon;resIcon=mxgraph.aws4.glue;" vertex="1" parent="1">
          <mxGeometry x="-512" y="537" width="78" height="78" as="geometry" />
        </mxCell>
        <mxCell id="uAErMOGdW6Ac975Xc95T-7" value="Neptune" style="sketch=0;points=[[0,0,0],[0.25,0,0],[0.5,0,0],[0.75,0,0],[1,0,0],[0,1,0],[0.25,1,0],[0.5,1,0],[0.75,1,0],[1,1,0],[0,0.25,0],[0,0.5,0],[0,0.75,0],[1,0.25,0],[1,0.5,0],[1,0.75,0]];outlineConnect=0;fontColor=#232F3E;fillColor=#C925D1;strokeColor=#ffffff;dashed=0;verticalLabelPosition=bottom;verticalAlign=top;align=center;html=1;fontSize=12;fontStyle=0;aspect=fixed;shape=mxgraph.aws4.resourceIcon;resIcon=mxgraph.aws4.neptune;" vertex="1" parent="1">
          <mxGeometry x="-250" y="49.5" width="78" height="78" as="geometry" />
        </mxCell>
        <mxCell id="uAErMOGdW6Ac975Xc95T-11" value="API CEP" style="aspect=fixed;sketch=0;html=1;dashed=0;whitespace=wrap;verticalLabelPosition=bottom;verticalAlign=top;fillColor=#2875E2;strokeColor=#ffffff;points=[[0.005,0.63,0],[0.1,0.2,0],[0.9,0.2,0],[0.5,0,0],[0.995,0.63,0],[0.72,0.99,0],[0.5,1,0],[0.28,0.99,0]];shape=mxgraph.kubernetes.icon2;kubernetesLabel=1;prIcon=api" vertex="1" parent="1">
          <mxGeometry x="-310" y="-376" width="90.63" height="87" as="geometry" />
        </mxCell>
        <mxCell id="uAErMOGdW6Ac975Xc95T-12" style="edgeStyle=none;curved=1;rounded=0;orthogonalLoop=1;jettySize=auto;html=1;entryX=0.5;entryY=1;entryDx=0;entryDy=0;entryPerimeter=0;fontSize=12;startSize=8;endSize=8;" edge="1" parent="1" source="uAErMOGdW6Ac975Xc95T-2" target="uAErMOGdW6Ac975Xc95T-11">
          <mxGeometry relative="1" as="geometry" />
        </mxCell>
        <mxCell id="uAErMOGdW6Ac975Xc95T-40" style="edgeStyle=none;curved=1;rounded=0;orthogonalLoop=1;jettySize=auto;html=1;entryX=0;entryY=0.5;entryDx=0;entryDy=0;fontSize=12;startSize=8;endSize=8;" edge="1" parent="1" source="uAErMOGdW6Ac975Xc95T-27" target="uAErMOGdW6Ac975Xc95T-39">
          <mxGeometry relative="1" as="geometry" />
        </mxCell>
        <mxCell id="uAErMOGdW6Ac975Xc95T-27" value="Lambda" style="sketch=0;points=[[0,0,0],[0.25,0,0],[0.5,0,0],[0.75,0,0],[1,0,0],[0,1,0],[0.25,1,0],[0.5,1,0],[0.75,1,0],[1,1,0],[0,0.25,0],[0,0.5,0],[0,0.75,0],[1,0.25,0],[1,0.5,0],[1,0.75,0]];outlineConnect=0;fontColor=#232F3E;fillColor=#ED7100;strokeColor=#ffffff;dashed=0;verticalLabelPosition=bottom;verticalAlign=top;align=center;html=1;fontSize=12;fontStyle=0;aspect=fixed;shape=mxgraph.aws4.resourceIcon;resIcon=mxgraph.aws4.lambda;" vertex="1" parent="1">
          <mxGeometry x="-113" y="279" width="78" height="78" as="geometry" />
        </mxCell>
        <mxCell id="uAErMOGdW6Ac975Xc95T-43" style="edgeStyle=none;curved=1;rounded=0;orthogonalLoop=1;jettySize=auto;html=1;fontSize=12;startSize=8;endSize=8;" edge="1" parent="1" source="uAErMOGdW6Ac975Xc95T-3" target="uAErMOGdW6Ac975Xc95T-6">
          <mxGeometry relative="1" as="geometry">
            <mxPoint x="-468" y="581" as="sourcePoint" />
          </mxGeometry>
        </mxCell>
        <mxCell id="uAErMOGdW6Ac975Xc95T-39" value="Envia e-mail com código de confirmação" style="rounded=0;whiteSpace=wrap;html=1;" vertex="1" parent="1">
          <mxGeometry x="63" y="275" width="154.05" height="86" as="geometry" />
        </mxCell>
        <mxCell id="uAErMOGdW6Ac975Xc95T-44" value="" style="sketch=0;outlineConnect=0;fontColor=#232F3E;gradientColor=none;fillColor=#C925D1;strokeColor=none;dashed=0;verticalLabelPosition=bottom;verticalAlign=top;align=center;html=1;fontSize=12;fontStyle=0;aspect=fixed;pointerEvents=1;shape=mxgraph.aws4.rds_mysql_instance_alt;" vertex="1" parent="1">
          <mxGeometry x="-380.05" y="534" width="78" height="78" as="geometry" />
        </mxCell>
        <mxCell id="uAErMOGdW6Ac975Xc95T-50" style="edgeStyle=none;curved=1;rounded=0;orthogonalLoop=1;jettySize=auto;html=1;fontSize=12;startSize=8;endSize=8;" edge="1" parent="1" source="uAErMOGdW6Ac975Xc95T-46" target="uAErMOGdW6Ac975Xc95T-49">
          <mxGeometry relative="1" as="geometry" />
        </mxCell>
        <mxCell id="uAErMOGdW6Ac975Xc95T-46" value="Actor" style="shape=umlActor;verticalLabelPosition=bottom;verticalAlign=top;html=1;outlineConnect=0;" vertex="1" parent="1">
          <mxGeometry x="748" y="-145" width="30" height="60" as="geometry" />
        </mxCell>
        <mxCell id="uAErMOGdW6Ac975Xc95T-112" style="edgeStyle=none;curved=1;rounded=0;orthogonalLoop=1;jettySize=auto;html=1;entryX=0;entryY=0.5;entryDx=0;entryDy=0;fontSize=12;startSize=8;endSize=8;" edge="1" parent="1" source="uAErMOGdW6Ac975Xc95T-47" target="uAErMOGdW6Ac975Xc95T-110">
          <mxGeometry relative="1" as="geometry" />
        </mxCell>
        <mxCell id="uAErMOGdW6Ac975Xc95T-47" value="ECS&lt;div&gt;&lt;br&gt;&lt;/div&gt;" style="sketch=0;points=[[0,0,0],[0.25,0,0],[0.5,0,0],[0.75,0,0],[1,0,0],[0,1,0],[0.25,1,0],[0.5,1,0],[0.75,1,0],[1,1,0],[0,0.25,0],[0,0.5,0],[0,0.75,0],[1,0.25,0],[1,0.5,0],[1,0.75,0]];outlineConnect=0;fontColor=#232F3E;fillColor=#ED7100;strokeColor=#ffffff;dashed=0;verticalLabelPosition=bottom;verticalAlign=top;align=center;html=1;fontSize=12;fontStyle=0;aspect=fixed;shape=mxgraph.aws4.resourceIcon;resIcon=mxgraph.aws4.ecs;" vertex="1" parent="1">
          <mxGeometry x="1214" y="-154" width="78" height="78" as="geometry" />
        </mxCell>
        <mxCell id="uAErMOGdW6Ac975Xc95T-49" value="API Gateway" style="sketch=0;points=[[0,0,0],[0.25,0,0],[0.5,0,0],[0.75,0,0],[1,0,0],[0,1,0],[0.25,1,0],[0.5,1,0],[0.75,1,0],[1,1,0],[0,0.25,0],[0,0.5,0],[0,0.75,0],[1,0.25,0],[1,0.5,0],[1,0.75,0]];outlineConnect=0;fontColor=#232F3E;fillColor=#8C4FFF;strokeColor=#ffffff;dashed=0;verticalLabelPosition=bottom;verticalAlign=top;align=center;html=1;fontSize=12;fontStyle=0;aspect=fixed;shape=mxgraph.aws4.resourceIcon;resIcon=mxgraph.aws4.api_gateway;" vertex="1" parent="1">
          <mxGeometry x="862" y="-154" width="78" height="78" as="geometry" />
        </mxCell>
        <mxCell id="uAErMOGdW6Ac975Xc95T-53" style="edgeStyle=none;curved=1;rounded=0;orthogonalLoop=1;jettySize=auto;html=1;fontSize=12;startSize=8;endSize=8;" edge="1" parent="1" source="uAErMOGdW6Ac975Xc95T-51" target="uAErMOGdW6Ac975Xc95T-47">
          <mxGeometry relative="1" as="geometry" />
        </mxCell>
        <mxCell id="uAErMOGdW6Ac975Xc95T-51" value="Load Balancer" style="outlineConnect=0;dashed=0;verticalLabelPosition=bottom;verticalAlign=top;align=center;html=1;shape=mxgraph.aws3.classic_load_balancer;fillColor=#F58534;gradientColor=none;" vertex="1" parent="1">
          <mxGeometry x="1026" y="-151" width="69" height="72" as="geometry" />
        </mxCell>
        <mxCell id="uAErMOGdW6Ac975Xc95T-52" style="edgeStyle=none;curved=1;rounded=0;orthogonalLoop=1;jettySize=auto;html=1;entryX=0;entryY=0.5;entryDx=0;entryDy=0;entryPerimeter=0;fontSize=12;startSize=8;endSize=8;" edge="1" parent="1" source="uAErMOGdW6Ac975Xc95T-49" target="uAErMOGdW6Ac975Xc95T-51">
          <mxGeometry relative="1" as="geometry" />
        </mxCell>
        <mxCell id="uAErMOGdW6Ac975Xc95T-62" style="edgeStyle=none;curved=1;rounded=0;orthogonalLoop=1;jettySize=auto;html=1;fontSize=12;startSize=8;endSize=8;" edge="1" parent="1" source="uAErMOGdW6Ac975Xc95T-55" target="uAErMOGdW6Ac975Xc95T-61">
          <mxGeometry relative="1" as="geometry" />
        </mxCell>
        <mxCell id="uAErMOGdW6Ac975Xc95T-64" value="Valida CEP e enriquece dados de Endereço" style="edgeLabel;html=1;align=center;verticalAlign=middle;resizable=0;points=[];fontSize=12;" vertex="1" connectable="0" parent="uAErMOGdW6Ac975Xc95T-62">
          <mxGeometry x="-0.2932" y="3" relative="1" as="geometry">
            <mxPoint as="offset" />
          </mxGeometry>
        </mxCell>
        <mxCell id="uAErMOGdW6Ac975Xc95T-55" value="Salva usuário" style="rounded=0;whiteSpace=wrap;html=1;" vertex="1" parent="1">
          <mxGeometry x="1550" y="-469.5" width="120" height="60" as="geometry" />
        </mxCell>
        <mxCell id="uAErMOGdW6Ac975Xc95T-57" value="Lambda" style="sketch=0;points=[[0,0,0],[0.25,0,0],[0.5,0,0],[0.75,0,0],[1,0,0],[0,1,0],[0.25,1,0],[0.5,1,0],[0.75,1,0],[1,1,0],[0,0.25,0],[0,0.5,0],[0,0.75,0],[1,0.25,0],[1,0.5,0],[1,0.75,0]];outlineConnect=0;fontColor=#232F3E;fillColor=#ED7100;strokeColor=#ffffff;dashed=0;verticalLabelPosition=bottom;verticalAlign=top;align=center;html=1;fontSize=12;fontStyle=0;aspect=fixed;shape=mxgraph.aws4.resourceIcon;resIcon=mxgraph.aws4.lambda;" vertex="1" parent="1">
          <mxGeometry x="2106" y="-401" width="78" height="78" as="geometry" />
        </mxCell>
        <mxCell id="uAErMOGdW6Ac975Xc95T-58" value="API CEP" style="aspect=fixed;sketch=0;html=1;dashed=0;whitespace=wrap;verticalLabelPosition=bottom;verticalAlign=top;fillColor=#2875E2;strokeColor=#ffffff;points=[[0.005,0.63,0],[0.1,0.2,0],[0.9,0.2,0],[0.5,0,0],[0.995,0.63,0],[0.72,0.99,0],[0.5,1,0],[0.28,0.99,0]];shape=mxgraph.kubernetes.icon2;kubernetesLabel=1;prIcon=api" vertex="1" parent="1">
          <mxGeometry x="2098.05" y="-549" width="90.63" height="87" as="geometry" />
        </mxCell>
        <mxCell id="uAErMOGdW6Ac975Xc95T-59" style="edgeStyle=none;curved=1;rounded=0;orthogonalLoop=1;jettySize=auto;html=1;entryX=0.5;entryY=1;entryDx=0;entryDy=0;entryPerimeter=0;fontSize=12;startSize=8;endSize=8;" edge="1" parent="1" source="uAErMOGdW6Ac975Xc95T-57" target="uAErMOGdW6Ac975Xc95T-58">
          <mxGeometry relative="1" as="geometry" />
        </mxCell>
        <mxCell id="uAErMOGdW6Ac975Xc95T-66" style="edgeStyle=none;curved=1;rounded=0;orthogonalLoop=1;jettySize=auto;html=1;fontSize=12;startSize=8;endSize=8;" edge="1" parent="1" source="uAErMOGdW6Ac975Xc95T-61" target="uAErMOGdW6Ac975Xc95T-65">
          <mxGeometry relative="1" as="geometry" />
        </mxCell>
        <mxCell id="uAErMOGdW6Ac975Xc95T-67" value="Salva dados (e-mail com status NAO_CONFIRMADO)" style="edgeLabel;html=1;align=center;verticalAlign=middle;resizable=0;points=[];fontSize=12;" vertex="1" connectable="0" parent="uAErMOGdW6Ac975Xc95T-66">
          <mxGeometry x="-0.1864" y="-1" relative="1" as="geometry">
            <mxPoint as="offset" />
          </mxGeometry>
        </mxCell>
        <mxCell id="uAErMOGdW6Ac975Xc95T-61" value="" style="rounded=0;whiteSpace=wrap;html=1;fillColor=none;strokeColor=#d79b00;strokeWidth=4;dashed=1;dashPattern=8 8;" vertex="1" parent="1">
          <mxGeometry x="2051" y="-597" width="188" height="315" as="geometry" />
        </mxCell>
        <mxCell id="uAErMOGdW6Ac975Xc95T-65" value="Neptune" style="sketch=0;points=[[0,0,0],[0.25,0,0],[0.5,0,0],[0.75,0,0],[1,0,0],[0,1,0],[0.25,1,0],[0.5,1,0],[0.75,1,0],[1,1,0],[0,0.25,0],[0,0.5,0],[0,0.75,0],[1,0.25,0],[1,0.5,0],[1,0.75,0]];outlineConnect=0;fontColor=#232F3E;fillColor=#C925D1;strokeColor=#ffffff;dashed=0;verticalLabelPosition=bottom;verticalAlign=top;align=center;html=1;fontSize=12;fontStyle=0;aspect=fixed;shape=mxgraph.aws4.resourceIcon;resIcon=mxgraph.aws4.neptune;" vertex="1" parent="1">
          <mxGeometry x="2692" y="-484" width="78" height="78" as="geometry" />
        </mxCell>
        <mxCell id="uAErMOGdW6Ac975Xc95T-73" style="edgeStyle=none;curved=1;rounded=0;orthogonalLoop=1;jettySize=auto;html=1;fontSize=12;startSize=8;endSize=8;" edge="1" parent="1" source="uAErMOGdW6Ac975Xc95T-69" target="uAErMOGdW6Ac975Xc95T-71">
          <mxGeometry relative="1" as="geometry" />
        </mxCell>
        <mxCell id="uAErMOGdW6Ac975Xc95T-69" value="SQS" style="sketch=0;points=[[0,0,0],[0.25,0,0],[0.5,0,0],[0.75,0,0],[1,0,0],[0,1,0],[0.25,1,0],[0.5,1,0],[0.75,1,0],[1,1,0],[0,0.25,0],[0,0.5,0],[0,0.75,0],[1,0.25,0],[1,0.5,0],[1,0.75,0]];outlineConnect=0;fontColor=#232F3E;fillColor=#E7157B;strokeColor=#ffffff;dashed=0;verticalLabelPosition=bottom;verticalAlign=top;align=center;html=1;fontSize=12;fontStyle=0;aspect=fixed;shape=mxgraph.aws4.resourceIcon;resIcon=mxgraph.aws4.sqs;" vertex="1" parent="1">
          <mxGeometry x="2257" y="-172" width="78" height="78" as="geometry" />
        </mxCell>
        <mxCell id="uAErMOGdW6Ac975Xc95T-70" style="edgeStyle=none;curved=1;rounded=0;orthogonalLoop=1;jettySize=auto;html=1;entryX=0;entryY=0.5;entryDx=0;entryDy=0;fontSize=12;startSize=8;endSize=8;" edge="1" parent="1" source="uAErMOGdW6Ac975Xc95T-71" target="uAErMOGdW6Ac975Xc95T-72">
          <mxGeometry relative="1" as="geometry" />
        </mxCell>
        <mxCell id="uAErMOGdW6Ac975Xc95T-71" value="Lambda" style="sketch=0;points=[[0,0,0],[0.25,0,0],[0.5,0,0],[0.75,0,0],[1,0,0],[0,1,0],[0.25,1,0],[0.5,1,0],[0.75,1,0],[1,1,0],[0,0.25,0],[0,0.5,0],[0,0.75,0],[1,0.25,0],[1,0.5,0],[1,0.75,0]];outlineConnect=0;fontColor=#232F3E;fillColor=#ED7100;strokeColor=#ffffff;dashed=0;verticalLabelPosition=bottom;verticalAlign=top;align=center;html=1;fontSize=12;fontStyle=0;aspect=fixed;shape=mxgraph.aws4.resourceIcon;resIcon=mxgraph.aws4.lambda;" vertex="1" parent="1">
          <mxGeometry x="2403" y="-172" width="78" height="78" as="geometry" />
        </mxCell>
        <mxCell id="uAErMOGdW6Ac975Xc95T-72" value="Envia e-mail com código de confirmação" style="rounded=0;whiteSpace=wrap;html=1;" vertex="1" parent="1">
          <mxGeometry x="2554" y="-176" width="154.05" height="86" as="geometry" />
        </mxCell>
        <mxCell id="uAErMOGdW6Ac975Xc95T-81" style="edgeStyle=none;curved=1;rounded=0;orthogonalLoop=1;jettySize=auto;html=1;fontSize=12;startSize=8;endSize=8;" edge="1" parent="1" source="uAErMOGdW6Ac975Xc95T-74" target="uAErMOGdW6Ac975Xc95T-80">
          <mxGeometry relative="1" as="geometry" />
        </mxCell>
        <mxCell id="uAErMOGdW6Ac975Xc95T-84" value="Armazena código de confirmação" style="edgeLabel;html=1;align=center;verticalAlign=middle;resizable=0;points=[];fontSize=12;" vertex="1" connectable="0" parent="uAErMOGdW6Ac975Xc95T-81">
          <mxGeometry x="-0.1656" relative="1" as="geometry">
            <mxPoint as="offset" />
          </mxGeometry>
        </mxCell>
        <mxCell id="uAErMOGdW6Ac975Xc95T-74" value="Enviar confirmação" style="rounded=0;whiteSpace=wrap;html=1;" vertex="1" parent="1">
          <mxGeometry x="1550" y="-163" width="120" height="60" as="geometry" />
        </mxCell>
        <mxCell id="uAErMOGdW6Ac975Xc95T-80" value="" style="outlineConnect=0;dashed=0;verticalLabelPosition=bottom;verticalAlign=top;align=center;html=1;shape=mxgraph.aws3.elasticache;fillColor=#2E73B8;gradientColor=none;" vertex="1" parent="1">
          <mxGeometry x="1908" y="-169" width="67.5" height="81" as="geometry" />
        </mxCell>
        <mxCell id="uAErMOGdW6Ac975Xc95T-82" style="edgeStyle=none;curved=1;rounded=0;orthogonalLoop=1;jettySize=auto;html=1;entryX=0;entryY=0.5;entryDx=0;entryDy=0;entryPerimeter=0;fontSize=12;startSize=8;endSize=8;" edge="1" parent="1" source="uAErMOGdW6Ac975Xc95T-80" target="uAErMOGdW6Ac975Xc95T-69">
          <mxGeometry relative="1" as="geometry" />
        </mxCell>
        <mxCell id="uAErMOGdW6Ac975Xc95T-83" value="Dispara evento para envio do e-mail" style="edgeLabel;html=1;align=center;verticalAlign=middle;resizable=0;points=[];fontSize=12;" vertex="1" connectable="0" parent="uAErMOGdW6Ac975Xc95T-82">
          <mxGeometry x="0.0469" y="1" relative="1" as="geometry">
            <mxPoint as="offset" />
          </mxGeometry>
        </mxCell>
        <mxCell id="uAErMOGdW6Ac975Xc95T-88" style="edgeStyle=none;curved=1;rounded=0;orthogonalLoop=1;jettySize=auto;html=1;fontSize=12;startSize=8;endSize=8;" edge="1" parent="1" source="uAErMOGdW6Ac975Xc95T-85" target="uAErMOGdW6Ac975Xc95T-86">
          <mxGeometry relative="1" as="geometry" />
        </mxCell>
        <mxCell id="uAErMOGdW6Ac975Xc95T-89" value="Verifica se código válido" style="edgeLabel;html=1;align=center;verticalAlign=middle;resizable=0;points=[];fontSize=12;" vertex="1" connectable="0" parent="uAErMOGdW6Ac975Xc95T-88">
          <mxGeometry x="-0.3782" relative="1" as="geometry">
            <mxPoint as="offset" />
          </mxGeometry>
        </mxCell>
        <mxCell id="uAErMOGdW6Ac975Xc95T-85" value="Confirmar e-mail" style="rounded=0;whiteSpace=wrap;html=1;" vertex="1" parent="1">
          <mxGeometry x="1550" y="60" width="120" height="60" as="geometry" />
        </mxCell>
        <mxCell id="uAErMOGdW6Ac975Xc95T-91" style="edgeStyle=none;curved=1;rounded=0;orthogonalLoop=1;jettySize=auto;html=1;fontSize=12;startSize=8;endSize=8;" edge="1" parent="1" source="uAErMOGdW6Ac975Xc95T-86" target="uAErMOGdW6Ac975Xc95T-90">
          <mxGeometry relative="1" as="geometry" />
        </mxCell>
        <mxCell id="uAErMOGdW6Ac975Xc95T-92" value="Atualiza status" style="edgeLabel;html=1;align=center;verticalAlign=middle;resizable=0;points=[];fontSize=12;" vertex="1" connectable="0" parent="uAErMOGdW6Ac975Xc95T-91">
          <mxGeometry x="0.1736" y="2" relative="1" as="geometry">
            <mxPoint as="offset" />
          </mxGeometry>
        </mxCell>
        <mxCell id="uAErMOGdW6Ac975Xc95T-86" value="" style="outlineConnect=0;dashed=0;verticalLabelPosition=bottom;verticalAlign=top;align=center;html=1;shape=mxgraph.aws3.elasticache;fillColor=#2E73B8;gradientColor=none;" vertex="1" parent="1">
          <mxGeometry x="1908" y="49.5" width="67.5" height="81" as="geometry" />
        </mxCell>
        <mxCell id="uAErMOGdW6Ac975Xc95T-90" value="Neptune" style="sketch=0;points=[[0,0,0],[0.25,0,0],[0.5,0,0],[0.75,0,0],[1,0,0],[0,1,0],[0.25,1,0],[0.5,1,0],[0.75,1,0],[1,1,0],[0,0.25,0],[0,0.5,0],[0,0.75,0],[1,0.25,0],[1,0.5,0],[1,0.75,0]];outlineConnect=0;fontColor=#232F3E;fillColor=#C925D1;strokeColor=#ffffff;dashed=0;verticalLabelPosition=bottom;verticalAlign=top;align=center;html=1;fontSize=12;fontStyle=0;aspect=fixed;shape=mxgraph.aws4.resourceIcon;resIcon=mxgraph.aws4.neptune;" vertex="1" parent="1">
          <mxGeometry x="2203" y="51" width="78" height="78" as="geometry" />
        </mxCell>
        <mxCell id="uAErMOGdW6Ac975Xc95T-96" style="edgeStyle=none;curved=1;rounded=0;orthogonalLoop=1;jettySize=auto;html=1;exitX=1;exitY=1;exitDx=0;exitDy=0;exitPerimeter=0;entryX=0;entryY=0.5;entryDx=0;entryDy=0;entryPerimeter=0;fontSize=12;startSize=8;endSize=8;" edge="1" parent="1" source="uAErMOGdW6Ac975Xc95T-1" target="uAErMOGdW6Ac975Xc95T-4">
          <mxGeometry relative="1" as="geometry" />
        </mxCell>
        <mxCell id="uAErMOGdW6Ac975Xc95T-98" style="edgeStyle=none;curved=1;rounded=0;orthogonalLoop=1;jettySize=auto;html=1;entryX=1;entryY=1;entryDx=0;entryDy=0;entryPerimeter=0;fontSize=12;startSize=8;endSize=8;" edge="1" parent="1" source="uAErMOGdW6Ac975Xc95T-1" target="uAErMOGdW6Ac975Xc95T-5">
          <mxGeometry relative="1" as="geometry" />
        </mxCell>
        <mxCell id="uAErMOGdW6Ac975Xc95T-99" value="ElastiCache" style="outlineConnect=0;dashed=0;verticalLabelPosition=bottom;verticalAlign=top;align=center;html=1;shape=mxgraph.aws3.elasticache;fillColor=#2E73B8;gradientColor=none;" vertex="1" parent="1">
          <mxGeometry x="-662" y="130.5" width="67.5" height="81" as="geometry" />
        </mxCell>
        <mxCell id="uAErMOGdW6Ac975Xc95T-101" style="edgeStyle=none;curved=1;rounded=0;orthogonalLoop=1;jettySize=auto;html=1;entryX=0.71;entryY=0.5;entryDx=0;entryDy=0;entryPerimeter=0;fontSize=12;startSize=8;endSize=8;" edge="1" parent="1" source="uAErMOGdW6Ac975Xc95T-1" target="uAErMOGdW6Ac975Xc95T-99">
          <mxGeometry relative="1" as="geometry" />
        </mxCell>
        <mxCell id="uAErMOGdW6Ac975Xc95T-104" style="edgeStyle=none;curved=1;rounded=0;orthogonalLoop=1;jettySize=auto;html=1;fontSize=12;startSize=8;endSize=8;" edge="1" parent="1" source="uAErMOGdW6Ac975Xc95T-102" target="uAErMOGdW6Ac975Xc95T-103">
          <mxGeometry relative="1" as="geometry" />
        </mxCell>
        <mxCell id="uAErMOGdW6Ac975Xc95T-105" value="Verifica existência e salva" style="edgeLabel;html=1;align=center;verticalAlign=middle;resizable=0;points=[];fontSize=12;" vertex="1" connectable="0" parent="uAErMOGdW6Ac975Xc95T-104">
          <mxGeometry x="0.2313" relative="1" as="geometry">
            <mxPoint as="offset" />
          </mxGeometry>
        </mxCell>
        <mxCell id="uAErMOGdW6Ac975Xc95T-102" value="Adiciona amigo" style="rounded=0;whiteSpace=wrap;html=1;" vertex="1" parent="1">
          <mxGeometry x="1550" y="258" width="120" height="60" as="geometry" />
        </mxCell>
        <mxCell id="uAErMOGdW6Ac975Xc95T-103" value="Neptune" style="sketch=0;points=[[0,0,0],[0.25,0,0],[0.5,0,0],[0.75,0,0],[1,0,0],[0,1,0],[0.25,1,0],[0.5,1,0],[0.75,1,0],[1,1,0],[0,0.25,0],[0,0.5,0],[0,0.75,0],[1,0.25,0],[1,0.5,0],[1,0.75,0]];outlineConnect=0;fontColor=#232F3E;fillColor=#C925D1;strokeColor=#ffffff;dashed=0;verticalLabelPosition=bottom;verticalAlign=top;align=center;html=1;fontSize=12;fontStyle=0;aspect=fixed;shape=mxgraph.aws4.resourceIcon;resIcon=mxgraph.aws4.neptune;" vertex="1" parent="1">
          <mxGeometry x="1902.75" y="249" width="78" height="78" as="geometry" />
        </mxCell>
        <mxCell id="uAErMOGdW6Ac975Xc95T-107" value="SNS" style="sketch=0;points=[[0,0,0],[0.25,0,0],[0.5,0,0],[0.75,0,0],[1,0,0],[0,1,0],[0.25,1,0],[0.5,1,0],[0.75,1,0],[1,1,0],[0,0.25,0],[0,0.5,0],[0,0.75,0],[1,0.25,0],[1,0.5,0],[1,0.75,0]];outlineConnect=0;fontColor=#232F3E;fillColor=#E7157B;strokeColor=#ffffff;dashed=0;verticalLabelPosition=bottom;verticalAlign=top;align=center;html=1;fontSize=12;fontStyle=0;aspect=fixed;shape=mxgraph.aws4.resourceIcon;resIcon=mxgraph.aws4.sns;" vertex="1" parent="1">
          <mxGeometry x="2281" y="249" width="78" height="78" as="geometry" />
        </mxCell>
        <mxCell id="uAErMOGdW6Ac975Xc95T-108" style="edgeStyle=none;curved=1;rounded=0;orthogonalLoop=1;jettySize=auto;html=1;entryX=0;entryY=0.5;entryDx=0;entryDy=0;entryPerimeter=0;fontSize=12;startSize=8;endSize=8;" edge="1" parent="1" source="uAErMOGdW6Ac975Xc95T-103" target="uAErMOGdW6Ac975Xc95T-107">
          <mxGeometry relative="1" as="geometry" />
        </mxCell>
        <mxCell id="uAErMOGdW6Ac975Xc95T-109" value="Notifica que alguém te add" style="edgeLabel;html=1;align=center;verticalAlign=middle;resizable=0;points=[];fontSize=12;" vertex="1" connectable="0" parent="uAErMOGdW6Ac975Xc95T-108">
          <mxGeometry x="-0.4169" y="-3" relative="1" as="geometry">
            <mxPoint x="-1" as="offset" />
          </mxGeometry>
        </mxCell>
        <mxCell id="uAErMOGdW6Ac975Xc95T-110" value="" style="rounded=0;whiteSpace=wrap;html=1;fillColor=none;strokeColor=#d79b00;strokeWidth=4;dashed=1;dashPattern=8 8;" vertex="1" parent="1">
          <mxGeometry x="1466" y="-617" width="1444" height="1004" as="geometry" />
        </mxCell>
        <mxCell id="uAErMOGdW6Ac975Xc95T-111" value="Features" style="text;html=1;align=center;verticalAlign=middle;whiteSpace=wrap;rounded=0;fontSize=21;fontStyle=1" vertex="1" parent="1">
          <mxGeometry x="1502" y="-597" width="60" height="30" as="geometry" />
        </mxCell>
      </root>
    </mxGraphModel>
  </diagram>
</mxfile>
